<?xml version="1.0" encoding="UTF-8"?>
<svg version="1.1" xmlns="http://www.w3.org/2000/svg" width="48" height="48">
<path d="M0 0 C4.68796317 2.8950501 8.77605467 6.42344712 10.234375 11.89453125 C11.16656452 18.74158704 11.3930195 24.99387098 7.671875 31.01953125 C3.66347868 35.99068326 0.31000422 38.47580101 -6.0078125 39.3359375 C-13.1275177 39.69575056 -18.34453314 39.19135672 -23.98828125 34.640625 C-29.08369757 29.63479842 -30.03494232 26.05750776 -30.390625 19.01953125 C-30.17838344 12.13997715 -28.58962241 7.80486419 -23.765625 2.89453125 C-17.29271618 -2.6344117 -7.84970384 -3.13766411 0 0 Z " fill="#036CC0" transform="translate(33.765625,5.10546875)"/>
<path d="M0 0 C4.69555028 1.74932265 7.13304192 3.92009812 10 8 C9.08090661 10.29773347 8.42859855 11.71224116 6.34765625 13.109375 C0.76609137 15.22684054 -6.88216338 15.13286323 -12.47265625 13.1015625 C-14.375 12 -14.375 12 -17 10 C-12.90134677 3.06381761 -8.5929972 -1.07412465 0 0 Z " fill="#59C5F2" transform="translate(27,30)"/>
<path d="M0 0 C1.80859375 0.63671875 1.80859375 0.63671875 3.87109375 2.26171875 C5.23661326 5.72103483 4.71462352 8.07731607 3.80859375 11.63671875 C2.05617869 14.55741052 0.73378577 14.65576078 -2.62890625 15.51171875 C-6.19140625 15.63671875 -6.19140625 15.63671875 -8.56640625 14.69921875 C-11.02588618 11.57757115 -11.61989032 8.5772419 -11.19140625 4.63671875 C-8.11757845 -0.22191228 -5.3819266 -1.1089414 0 0 Z " fill="#5DC9F6" transform="translate(27.19140625,11.36328125)"/>
<path d="M0 0 C3.77070649 1.6672132 5.0709374 3.33478106 7 7 C2.1959847 11.96414914 2.1959847 11.96414914 -2.2578125 12.09765625 C-4.17207031 12.08025391 -4.17207031 12.08025391 -6.125 12.0625 C-7.40632813 12.05347656 -8.68765625 12.04445313 -10.0078125 12.03515625 C-11.48894531 12.01775391 -11.48894531 12.01775391 -13 12 C-11.89591797 11.14148438 -11.89591797 11.14148438 -10.76953125 10.265625 C-8.24872088 8.20346701 -5.96884369 6.07001053 -3.6875 3.75 C-2.64142578 2.69039062 -2.64142578 2.69039062 -1.57421875 1.609375 C-1.05472656 1.07828125 -0.53523438 0.5471875 0 0 Z " fill="#41B8EF" transform="translate(30,32)"/>
<path d="M0 0 C0.66 0.66 1.32 1.32 2 2 C1.81873935 5.32311195 1.60763145 7.98728092 -0.125 10.875 C-3.01271908 12.60763145 -5.67688805 12.81873935 -9 13 C-9.66 12.34 -10.32 11.68 -11 11 C-10.45730469 10.54109375 -9.91460938 10.0821875 -9.35546875 9.609375 C-8.64003906 8.99578125 -7.92460937 8.3821875 -7.1875 7.75 C-6.47980469 7.14671875 -5.77210937 6.5434375 -5.04296875 5.921875 C-3.08110329 4.07629602 -1.54330375 2.20054668 0 0 Z " fill="#37B1EA" transform="translate(30,14)"/>
<path d="M0 0 C-1.45770122 3.31907356 -3.29506264 5.65073389 -5.8125 8.25 C-6.47894531 8.95640625 -7.14539063 9.6628125 -7.83203125 10.390625 C-10.43559748 12.32336245 -11.83099716 12.33183276 -15 12 C-13.85742021 10.85742021 -12.71387925 9.71579054 -11.56640625 8.578125 C-10.43376443 7.43700955 -9.31865545 6.27840096 -8.21484375 5.109375 C-7.60769531 4.47515625 -7.00054687 3.8409375 -6.375 3.1875 C-5.52035156 2.28064453 -5.52035156 2.28064453 -4.6484375 1.35546875 C-3 0 -3 0 0 0 Z " fill="#4CBDF0" transform="translate(30,31)"/>
<path d="M0 0 C0.66 0 1.32 0 2 0 C2.33 0.99 2.66 1.98 3 3 C-1.8040153 7.96414914 -1.8040153 7.96414914 -6.2578125 8.09765625 C-8.17207031 8.08025391 -8.17207031 8.08025391 -10.125 8.0625 C-11.40632813 8.05347656 -12.68765625 8.04445313 -14.0078125 8.03515625 C-15.48894531 8.01775391 -15.48894531 8.01775391 -17 8 C-17 7.67 -17 7.34 -17 7 C-16.27554687 6.99742188 -15.55109375 6.99484375 -14.8046875 6.9921875 C-7.89178374 6.78338877 -7.89178374 6.78338877 -2.4375 2.9375 C-1.633125 1.968125 -0.82875 0.99875 0 0 Z " fill="#279CD1" transform="translate(34,36)"/>
<path d="M0 0 C0.680625 0.515625 1.36125 1.03125 2.0625 1.5625 C6.76737523 3.86488575 11.1315596 2.36316331 16 1 C15.01 2.98 14.02 4.96 13 7 C9.7 7 6.4 7 3 7 C1 3 1 3 0 0 Z " fill="#0362AC" transform="translate(16,23)"/>
<path d="M0 0 C0.66 0.33 1.32 0.66 2 1 C1.42946335 4.77235429 -0.16643421 6.62716051 -2.8125 9.3125 C-3.84310547 10.38951172 -3.84310547 10.38951172 -4.89453125 11.48828125 C-7 13 -7 13 -9.26171875 12.73046875 C-9.83535156 12.48941406 -10.40898437 12.24835937 -11 12 C-10.29875 11.319375 -9.5975 10.63875 -8.875 9.9375 C-5.72065663 6.79219487 -2.86065696 3.4111614 0 0 Z " fill="#47BAEF" transform="translate(28,12)"/>
<path d="M0 0 C-1.23399063 1.36877116 -2.48780623 2.71969166 -3.75 4.0625 C-4.79414063 5.19365234 -4.79414063 5.19365234 -5.859375 6.34765625 C-8 8 -8 8 -10.265625 7.74609375 C-10.83796875 7.49988281 -11.4103125 7.25367188 -12 7 C-11.04578192 5.85073734 -10.08647955 4.70569459 -9.125 3.5625 C-8.59132813 2.92441406 -8.05765625 2.28632812 -7.5078125 1.62890625 C-4.87757781 -1.21256491 -3.54250274 -1.06275082 0 0 Z " fill="#66CEF8" transform="translate(22,32)"/>
<path d="M0 0 C0.99 0.99 1.98 1.98 3 3 C1.93283928 4.20205464 0.84561663 5.38632333 -0.25 6.5625 C-1.15492187 7.55443359 -1.15492187 7.55443359 -2.078125 8.56640625 C-4 10 -4 10 -6.234375 9.71484375 C-6.81703125 9.47894531 -7.3996875 9.24304687 -8 9 C-7.50628906 8.51789062 -7.01257813 8.03578125 -6.50390625 7.5390625 C-5.86324219 6.90742187 -5.22257812 6.27578125 -4.5625 5.625 C-3.92441406 4.99851562 -3.28632813 4.37203125 -2.62890625 3.7265625 C-0.92117824 2.08276939 -0.92117824 2.08276939 0 0 Z " fill="#35B0EB" transform="translate(32,33)"/>
<path d="M0 0 C0.33 0 0.66 0 1 0 C0.40298507 6.32835821 0.40298507 6.32835821 -1.125 8.875 C-3.94403684 10.56642211 -6.76977183 10.69526149 -10 11 C-9.1646875 10.6596875 -9.1646875 10.6596875 -8.3125 10.3125 C-4.65660676 8.23753357 -1.6048052 5.72136865 -0.1875 1.6875 C-0.125625 1.130625 -0.06375 0.57375 0 0 Z " fill="#27A3E1" transform="translate(31,16)"/>
<path d="M0 0 C0.66 0.99 1.32 1.98 2 3 C0.68 4.32 -0.64 5.64 -2 7 C-2.66 6.67 -3.32 6.34 -4 6 C-2.68 4.02 -1.36 2.04 0 0 Z " fill="#1D95D4" transform="translate(35,36)"/>
</svg>
